<svg xmlns="http://www.w3.org/2000/svg" width="1060" height="1222.667" viewBox="0 0 795 917"><path fill="#00C8FF" d="M343.5 14.1c-124.1 8.3-224.6 39.3-281.6 86.7-20.1 16.7-35.4 37.8-42.1 58.2-5.6 16.8-5.3-.6-5.3 294 0 211.4.3 274.1 1.2 279.6 8.3 47.3 39.5 82.9 99.3 113.1 55.7 28.1 132 47.2 218 54.5 21 1.8 110.3 1.8 129.5 0C529.6 894 576 885 624.1 869c23.7-7.9 36.6-13.3 56.9-23.5 61.1-31 92.9-69 99-118.5.7-5.6 1-96.8 1-275.5 0-289.4.2-275.7-5.3-292-3.2-9.3-9.9-22.5-15.5-30.5-6.8-9.7-27.3-29.7-38.7-37.7-57-40.5-140-65.5-251.5-75.9-20.3-1.9-105.1-2.8-126.5-1.3M422.1 54c112.6 3.8 208.3 26.7 266.1 63.6 50.6 32.4 65.5 72.7 39.8 107.3-31 41.8-110.3 75.1-213.8 90-64.4 9.3-125.5 11.1-189.2 5.5-110.7-9.6-205.2-41.5-247.1-83.3-11.7-11.7-16.7-18.7-20.6-28.8-2.3-5.8-2.7-8.3-2.6-17.3 0-19.6 6.7-33.5 24.7-51.6 21.5-21.5 51.3-38 96.1-53.3 55-18.9 128.1-30.5 203-32.4 5.5-.2 11.1-.4 12.5-.5s15.4.3 31.1.8M66.5 279.7c26.7 21.6 72 43.4 118 56.8 47.2 13.8 91 21.5 152.5 26.7 20.6 1.7 99.9 1.7 121.5 0 63.6-5.1 122.2-16.2 170-32 43.2-14.3 86-37.5 108.6-58.9l3.6-3.4.2 52.8c.1 33-.2 54.9-.9 58.3-1.3 7.4-7.8 20.1-14 27.7-6.3 7.7-18.9 18.8-30 26.3-51.9 34.9-135.1 58.6-236 67-37.9 3.1-90.8 2.9-132-.6-90.2-7.6-172.1-30.6-222.9-62.6-24.9-15.7-42-33.5-48.4-50.4-2.2-5.8-2.2-6.8-2.5-62.4l-.3-56.5 3.8 3.6c2.1 1.9 6.1 5.4 8.8 7.6m17 191.2c57.2 37.9 143.2 62.6 250.5 71.8 25.4 2.1 95.7 2.4 121 .5 94.7-7.3 172.6-26.5 231-56.8 19.3-10.1 39.2-23.7 50.7-34.7l4.2-4 .1 53.9c0 58.3-.1 59.7-5.5 71-13.3 27.4-58.7 57.3-117 77.1C500.8 689.5 341.1 694 214.2 661c-75.5-19.7-135.1-53.1-153.7-86.4-6.3-11.3-6.5-13.1-6.5-72.9V448l8.3 7.1c4.5 3.9 14.1 11 21.2 15.8m-8 174.1c49.6 35.8 129.1 62.5 220.5 73.9 112.6 14.1 236.1 4 328.5-27 46.6-15.6 85.7-36.5 109.2-58.3l6.1-5.6.5 3.2c.3 1.8.6 21.5.6 43.8.1 45.3-.7 54.7-5.9 67.5-7.6 19.1-22.8 35.6-48.4 52.4-11.8 7.7-37.4 20.7-52.6 26.6-76.6 29.9-187.3 44.3-288 37.4-96-6.5-176.9-27.6-231.5-60.4-31.8-19.1-51-40.8-57.7-65.3-2-7.3-2.2-10.5-2.6-57.1l-.4-49.4 6.9 6.2c3.7 3.5 10.4 8.9 14.8 12.1M644 368.1c-4.7 1.9-10 8.1-11.6 13.6-1.8 6.3-1.2 10.7 2.6 16.6 4 6.3 10 9.1 18.5 8.5 7.2-.4 9.9-1.9 14.9-8.2 2.9-3.5 3.1-4.4 3.1-11.6s-.2-8.1-3.1-11.7c-4.6-5.6-9.8-8.3-16.4-8.2-3 0-6.6.5-8 1m-.6 179.8c-8.3 3.8-13.7 14.5-11.5 22.7 1.6 5.8 4.5 10 9.2 13.1 3.6 2.4 5.3 2.8 11 2.8 5.9 0 7.3-.4 11.1-3 6-4.3 8.8-9.6 8.8-16.8 0-15.4-14.7-25.1-28.6-18.8m.6 180.2c-7.5 3-14.1 14.6-12.5 22.2 3 14.5 18.8 21.7 31 14.2 11.5-7.1 12.9-23.2 2.8-32.7-1.5-1.5-4.1-3.2-5.6-3.7-3.5-1.3-12.3-1.3-15.7 0"/></svg>