<svg xmlns="http://www.w3.org/2000/svg" width="1058.667" height="678.667" viewBox="0 0 794 509" fill="#00C8FF"><path d="M447 14.5c-35.4 4.9-68.3 19.1-96.5 41.8-10.2 8.2-27.3 25.9-34.8 35.9l-5.8 7.8-3.7-1.6c-17.6-7.8-32.2-10.8-51.7-10.8-16.7-.1-25.5 1.2-39.5 5.6-41 13-72.6 44-86 84.5-2.5 7.7-4.6 17.9-6.6 33-.4 2.9-.9 3.3-8.7 5.8-43.9 14.1-78.8 48.5-93.2 91.8-5.9 17.8-7 25-7 46.7 0 16.8.3 20.9 2.3 30 6.6 29.1 19.7 52.6 40.7 72.8 19 18.4 39.2 29.2 66.8 35.9 6.7 1.6 18.7 1.8 171 2l163.7.3.1-3.2c0-1.8 0-40.2-.1-85.3v-82l-28.1-.3-28.1-.2 4.5-6.3c2.4-3.4 21.2-29.8 41.7-58.7s39-54.9 41.1-57.8l3.7-5.3 42.3 59.3c23.2 32.6 43.8 61.4 45.6 64l3.5 4.8H527v171h65.4c72.4 0 74.2-.1 93.3-6.5 45.1-15.1 79.1-51.8 90.9-98.2 3.7-14.6 4.7-25.2 4.1-42.3-1.4-37.3-15.6-70.3-41.6-96.7-15.5-15.6-36.8-28.7-58-35.4l-9.8-3.1-.6-10.6c-2.2-40.4-18.9-83.1-45.4-116.3-26.2-32.9-64.8-58.1-104-68-22.7-5.7-52-7.5-74.3-4.4m59.3 22.4c57.2 12.4 103.4 50.4 127.9 105.2 9.9 22.3 14.8 44.4 15.5 71.2.5 17.1.6 17.7 2.7 18.2 19.8 4 27.9 6.6 41.3 13.3 52 26.2 78.6 90.7 60.7 147.4-10.9 34.6-37.3 63.1-69.9 75.3-18.6 7-16.2 6.8-79 7.2l-57 .4.3-64.5.2-64.6h37.6c32.6 0 37.5-.2 37.1-1.5-.4-.8-17.2-24.7-37.5-53.2s-49.3-69.4-64.6-90.8c-15.3-21.5-28.1-39.1-28.6-39.3-.4-.2-1.7 1-2.7 2.5-2.2 3.1-69.2 97.5-94.7 133.3-8.8 12.4-20.1 28.3-25.2 35.5l-9.2 13 37.9.3 37.9.2v129H289.2c-131.5 0-148.9-.2-157.2-1.6-37.4-6.4-67.7-29-84.9-63.2-26.4-52.5-12-116.2 34.7-153.3 17.4-13.9 44.7-24.9 58.1-23.4 27.7 3.1 50.9 13.6 70 31.9 16.4 15.8 25.3 31.4 31.8 55.7l2.8 10.4 4.7.3c2.5.2 6.1-.1 8-.6 3-.7 3.4-1.3 4-5.3 1.1-7.7-4.4-27.4-12-42.4-5.9-11.8-13.1-21.5-23.6-32-19.5-19.4-41.8-31-70.6-36.7l-11.2-2.2.6-6.5c2.9-28.3 19.7-57.8 42.9-75.2C218 107.8 259.9 102 293.6 116l5.2 2.2-4.9 10.1c-11.4 24-19.9 60.4-19.9 85.4v4.3h20.7l1.1-14.3c2.1-25.3 8-46.9 18.7-68.5 26.9-54.2 75-90.3 133.2-99.7 13.2-2.1 45.7-1.4 58.6 1.4"/></svg>