<svg fill="#00C8FF" xmlns="http://www.w3.org/2000/svg" width="746.667" height="938.667" viewBox="0 0 560 704"><path d="M169 50.4C30.9 98.3 40.6 94.8 33.5 99.6c-7 4.7-14.3 13.8-17.7 22.1l-2.3 5.8-.3 132c-.2 114.2 0 133.6 1.3 143.9 6.4 48.9 30.4 98 71 145.1 11.1 12.8 37.9 39.2 52.6 51.7 35.5 30.1 80.4 60.1 123.6 82.5l18.2 9.4 14.8-7.5c43.2-21.9 86.5-50.4 124.8-82.2 17.3-14.4 50.7-47.9 63.1-63.4 37.6-47 57.3-89.9 63.4-138 .7-5.7 1-51 1-139.2-.1-126.9-.1-131-2-137.1-3.9-12.7-12.7-23-24.5-28.7-3.3-1.6-30.3-11.3-60-21.6-99.3-34.2-110.8-38.2-146-50.3-19.2-6.7-34.9-12.1-35-12 0 0-49.7 17.3-110.5 38.3m147 5.1c20 6.9 36.6 12.8 36.8 13 .3.2-2.2 4.1-5.5 8.7s-19 26.5-35 48.8c-15.9 22.3-44.6 62.3-63.8 89-19.1 26.7-41.6 57.9-49.9 69.5-8.3 11.5-28.7 39.9-45.3 63S123 389.8 123 390.2c0 .5 29.6.9 65.9 1l65.8.3-6.9 25c-3.8 13.7-11.2 40.5-16.4 59.5-5.3 19-13.6 49.1-18.5 67-13.9 50.1-17.1 61.4-17.9 62.8-.5 1-3.9-1-12.6-7.6C97.8 534.2 49.7 463.3 43 392.5c-1.4-15.4-1.4-253.6.1-258.9.6-2.1 2.7-5.6 4.7-7.7 3.5-3.6 6.5-4.8 57.7-22.4 75.6-26.1 173.8-60.2 174.1-60.4 0-.1 16.4 5.5 36.4 12.4m69.1 23.9C395.2 83 427 94 455.8 103.9c28.8 10 53.4 18.9 54.8 19.8 1.3 1 3.5 4.1 4.9 6.9l2.6 5.1-.4 130.4c-.3 128.7-.4 130.5-2.5 141.4-4.4 22.5-9.6 37.9-19.8 58.5-29.5 59.6-91.3 120.3-171.6 168.8-14.5 8.7-42.3 24.2-43.6 24.2-2.8 0-43-23.2-64.5-37.3l-13.8-9 1.6-2.4c2.2-3.2 130.7-183.3 157-219.8 11.4-16 29.2-40.7 39.5-55 10.2-14.3 23-32.1 28.4-39.5l9.7-13.5-65-.3c-35.8-.1-65.1-.4-65.1-.6 0-.4 17.9-66.4 26.4-97.1 3-11 10.7-39.1 17.1-62.5 13.3-48.6 13.4-49 14.5-49 .4 0 9 2.9 19.1 6.4m-88.5 133.1c-15.3 55-26.6 96.5-26.6 97.4 0 .8 17.3 1.1 55.5 1.1 30.5 0 55.5.3 55.5.6s-6.2 9.2-13.8 19.8c-18.3 25.2-86.2 119.8-97.4 135.5-4.8 6.8-8.8 12-8.8 11.6s3.6-13.8 8.1-29.8c4.4-16.1 11.4-41.3 15.5-56.2 4.1-14.8 7.7-27.8 8-28.7.5-1.7-2.6-1.8-56.5-2l-57.1-.3 15.5-21.5c8.5-11.8 36.3-50.6 61.7-86.1 25.5-35.5 46.4-64.5 46.5-64.5.1.1-2.6 10.5-6.1 23.1"/></svg>