<svg xmlns="http://www.w3.org/2000/svg" width="920" height="773.333" viewBox="0 0 690 580" fill="#00C8FF"><path d="M112.8 13c-20 3.4-36.5 17.6-43 36.9-2.3 6.6-2.3 7-2.8 97.6l-.5 91-2.7 5.8c-3.7 7.8-11.7 16-19.2 19.7-5.9 2.9-20.6 5.7-22.8 4.4-.5-.3-2.9-.3-5.4.1l-4.4.6V311h7.9c10.4 0 17.3 1.4 24.7 5 7.5 3.7 15.5 11.9 19.2 19.7l2.7 5.8.6 90.5c.6 97.7.4 94 6.2 106 3.8 7.8 14.8 19.2 22.3 23.2 10.9 5.8 10.1 5.8 90.6 5.8H260v-42h-70.5c-61.2 0-71-.2-73.5-1.5-6.3-3.2-6 .8-6-91.8 0-92-.1-93.7-5.7-108.9-3.3-9-12.8-23.3-18.9-28.7l-4.6-4 5.4-5.3c9.7-9.5 16.4-21 21-36.1 2.2-7.1 2.2-8 2.8-97.5l.5-90.4 3.3-2.9L117 55h143V12l-71.2.1c-39.2.1-73.4.5-76 .9m317.9-.4c-.4.4-.7 10.1-.7 21.6V55h143.2l3.4 3.4 3.4 3.4v85.5c0 93.8.1 95.2 6 110.5 3.7 9.5 9.2 17.8 17.1 26l6.1 6.2-5.8 5.8c-11.3 11.2-19 26.3-21.9 42.7-1.3 7.4-1.5 21.8-1.5 93.1 0 52.3-.4 85.2-1 86.8-.5 1.4-2.4 3.5-4.2 4.6-3.2 1.9-5.1 2-74 2H430v42h74.4c71.4 0 74.6-.1 80.8-2 15.8-4.9 29.5-18.5 35.1-35 2.2-6.5 2.2-7.1 2.7-97.5l.5-91 3.2-6.6c7.9-15.9 22.5-23.9 44.1-23.9h7.2v-42h-6.7c-22.2 0-36.8-8.1-45-24.8l-2.8-5.7-.5-91c-.6-99.8-.3-94.2-6.6-106.7-3.5-6.9-14.3-18-21.1-21.6-13.2-6.9-9-6.6-90.3-7-40.5-.1-73.9 0-74.3.4"/></svg>