<svg width="96" height="96" viewBox="0 0 96 96" fill="none" xmlns="http://www.w3.org/2000/svg" role="img" aria-labelledby="title desc">
  <title id="title">Local Rush mark</title>
  <desc id="desc">Map pin with radar route for local lead intelligence.</desc>
  <defs>
    <linearGradient id="markGradient" x1="16" y1="12" x2="82" y2="86" gradientUnits="userSpaceOnUse">
      <stop stop-color="#B8FF68"/>
      <stop offset="0.45" stop-color="#58F4E4"/>
      <stop offset="1" stop-color="#0B9C96"/>
    </linearGradient>
    <radialGradient id="markGlow" cx="0" cy="0" r="1" gradientUnits="userSpaceOnUse" gradientTransform="translate(46 44) rotate(90) scale(46)">
      <stop stop-color="#FFFFFF" stop-opacity="0.72"/>
      <stop offset="0.42" stop-color="#58F4E4" stop-opacity="0.2"/>
      <stop offset="1" stop-color="#061115" stop-opacity="0"/>
    </radialGradient>
  </defs>
  <rect x="8" y="8" width="80" height="80" rx="25" fill="#061115"/>
  <rect x="8.75" y="8.75" width="78.5" height="78.5" rx="24.25" stroke="#8CFBF1" stroke-opacity="0.32" stroke-width="1.5"/>
  <path d="M48 17C34.745 17 24 27.348 24 40.112C24 55.978 42.343 72.904 47.082 77.029C47.61 77.489 48.39 77.489 48.918 77.029C53.657 72.904 72 55.978 72 40.112C72 27.348 61.255 17 48 17Z" fill="url(#markGradient)"/>
  <path d="M48 27.5C40.544 27.5 34.5 33.544 34.5 41C34.5 48.456 40.544 54.5 48 54.5C55.456 54.5 61.5 48.456 61.5 41C61.5 33.544 55.456 27.5 48 27.5ZM48 34.25C51.728 34.25 54.75 37.272 54.75 41C54.75 44.728 51.728 47.75 48 47.75C44.272 47.75 41.25 44.728 41.25 41C41.25 37.272 44.272 34.25 48 34.25Z" fill="#061115"/>
  <path d="M20 62C28.292 55.256 36.058 52.204 43.298 52.844C50.538 53.484 55.798 58.036 63.02 57.109C68.128 56.453 72.821 53.967 77.1 49.65" stroke="#061115" stroke-width="5.5" stroke-linecap="round" stroke-linejoin="round" opacity="0.75"/>
  <path d="M20 62C28.292 55.256 36.058 52.204 43.298 52.844C50.538 53.484 55.798 58.036 63.02 57.109C68.128 56.453 72.821 53.967 77.1 49.65" stroke="#B8FF68" stroke-width="2.5" stroke-linecap="round" stroke-linejoin="round"/>
  <circle cx="77" cy="49.75" r="4.75" fill="#B8FF68" stroke="#061115" stroke-width="2"/>
  <circle cx="20" cy="62" r="3.75" fill="#58F4E4" stroke="#061115" stroke-width="2"/>
  <rect x="8" y="8" width="80" height="80" rx="25" fill="url(#markGlow)"/>
</svg>
